<svg width="37" height="37" viewBox="0 0 37 37" fill="none" xmlns="http://www.w3.org/2000/svg">
<rect width="37" height="37" rx="18.5" fill="#F53838" fill-opacity="0.1"/>
<path d="M28.5 22.69C28.5 26.33 26.33 28.5 22.69 28.5H21.5C20.95 28.5 20.5 28.05 20.5 27.5V21.73C20.5 21.46 20.72 21.23 20.99 21.23L22.75 21.2C22.89 21.19 23.01 21.09 23.04 20.95L23.39 19.04C23.42 18.86 23.28 18.69 23.09 18.69L20.96 18.72C20.68 18.72 20.46 18.5 20.45 18.23L20.41 15.78C20.41 15.62 20.54 15.48 20.71 15.48L23.11 15.44C23.28 15.44 23.41 15.31 23.41 15.14L23.37 12.74C23.37 12.57 23.24 12.44 23.07 12.44L20.37 12.48C18.71 12.51 17.39 13.87 17.42 15.53L17.47 18.28C17.48 18.56 17.26 18.78 16.98 18.79L15.78 18.81C15.61 18.81 15.48 18.94 15.48 19.11L15.51 21.01C15.51 21.18 15.64 21.31 15.81 21.31L17.01 21.29C17.29 21.29 17.51 21.51 17.52 21.78L17.61 27.48C17.62 28.04 17.17 28.5 16.61 28.5H14.31C10.67 28.5 8.5 26.33 8.5 22.68V14.31C8.5 10.67 10.67 8.5 14.31 8.5H22.69C26.33 8.5 28.5 10.67 28.5 14.31V22.69Z" fill="#F53838"/>
</svg>
