<svg width="37" height="37" viewBox="0 0 37 37" fill="none" xmlns="http://www.w3.org/2000/svg">
<rect width="37" height="37" rx="18.5" fill="#F53838" fill-opacity="0.1"/>
<path d="M28.48 17.91C28.14 12.11 22.87 7.63996 16.8 8.63996C12.62 9.32996 9.26999 12.7199 8.61999 16.8999C8.23999 19.3199 8.74001 21.6099 9.83001 23.4999L8.93999 26.8099C8.73999 27.5599 9.42998 28.2399 10.17 28.0299L13.43 27.13C14.91 28 16.64 28.4999 18.49 28.4999C24.13 28.4999 28.81 23.53 28.48 17.91ZM23.38 22.2199C23.29 22.3999 23.18 22.57 23.04 22.73C22.79 23 22.52 23.2 22.22 23.32C21.92 23.45 21.59 23.51 21.24 23.51C20.73 23.51 20.18 23.39 19.61 23.14C19.03 22.89 18.46 22.5599 17.89 22.1499C17.31 21.7299 16.77 21.2599 16.25 20.7499C15.73 20.2299 15.27 19.6799 14.85 19.1099C14.44 18.5399 14.11 17.9699 13.87 17.3999C13.63 16.8299 13.51 16.28 13.51 15.76C13.51 15.42 13.57 15.09 13.69 14.79C13.81 14.48 14 14.2 14.27 13.95C14.59 13.63 14.94 13.48 15.31 13.48C15.45 13.48 15.59 13.51 15.72 13.57C15.85 13.63 15.97 13.72 16.06 13.85L17.22 15.4899C17.31 15.6199 17.38 15.7299 17.42 15.8399C17.47 15.9499 17.49 16.0499 17.49 16.1499C17.49 16.2699 17.45 16.39 17.38 16.51C17.31 16.63 17.22 16.7499 17.1 16.8699L16.72 17.2699C16.66 17.3299 16.64 17.3899 16.64 17.4699C16.64 17.5099 16.65 17.5499 16.66 17.5899C16.68 17.6299 16.69 17.66 16.7 17.6899C16.79 17.86 16.95 18.0699 17.17 18.3299C17.4 18.5899 17.64 18.8599 17.9 19.1199C18.17 19.3899 18.43 19.6299 18.7 19.8599C18.96 20.0799 19.18 20.23 19.35 20.32C19.38 20.33 19.41 20.3499 19.44 20.3599C19.48 20.3799 19.52 20.38 19.57 20.38C19.66 20.38 19.72 20.35 19.78 20.29L20.16 19.91C20.29 19.78 20.41 19.69 20.52 19.63C20.64 19.56 20.75 19.5199 20.88 19.5199C20.98 19.5199 21.08 19.5399 21.19 19.5899C21.3 19.6399 21.42 19.7 21.54 19.79L23.2 20.9699C23.33 21.0599 23.42 21.17 23.48 21.29C23.53 21.42 23.56 21.5399 23.56 21.6799C23.5 21.8499 23.46 22.0399 23.38 22.2199Z" fill="#F53838"/>
</svg>
