<svg width="37" height="37" viewBox="0 0 37 37" fill="none" xmlns="http://www.w3.org/2000/svg">
<rect width="37" height="37" rx="18.5" fill="#F53838" fill-opacity="0.1"/>
<path d="M23.5 10.5H13.5C10.5 10.5 8.5 12.5 8.5 15.5V21.5C8.5 24.5 10.5 26.5 13.5 26.5H23.5C26.5 26.5 28.5 24.5 28.5 21.5V15.5C28.5 12.5 26.5 10.5 23.5 10.5ZM20.39 19.53L17.92 21.01C16.92 21.61 16.1 21.15 16.1 19.98V17.01C16.1 15.84 16.92 15.38 17.92 15.98L20.39 17.46C21.34 18.04 21.34 18.96 20.39 19.53Z" fill="#F53838"/>
</svg>
